<?xml version="1.0" encoding="utf-8"?>
<!-- Generator: Adobe Illustrator 27.0.0, SVG Export Plug-In . SVG Version: 6.00 Build 0)  -->
<svg version="1.1" id="Layer_1" xmlns="http://www.w3.org/2000/svg" xmlns:xlink="http://www.w3.org/1999/xlink" x="0px" y="0px"
	 viewBox="0 0 100 100" style="enable-background:new 0 0 100 100;" xml:space="preserve">
<style type="text/css">
	.st0{fill:#F5008B;}
	.st1{fill:#96458F;}
</style>
<g>
	<g>
		<path class="st0" d="M30.4,50.6c-0.3,0.1-0.6,0.1-0.9,0.1c-1,0-2-0.7-2.4-1.7c-0.5-1.3,0.2-2.8,1.5-3.3l6.8-2.4l-7.1-3.6
			c-1.3-0.6-1.8-2.2-1.1-3.4c0.6-1.3,2.2-1.8,3.4-1.1l12.5,6.3c0.3,0.1,0.5,0.3,0.7,0.5l21.8-21.8c-4.7-2.4-10-3.8-15.6-3.8
			c-18.5,0-33.6,15-33.6,33.6c0,5.6,1.4,10.9,3.8,15.6L37.9,48L30.4,50.6z"/>
		<path class="st0" d="M79.7,34.4L52.3,61.8c4.8,0.5,9.3,2.6,12.8,6.1c1,1,1,2.6,0,3.6c-0.5,0.5-1.2,0.8-1.8,0.8
			c-0.6,0-1.3-0.2-1.8-0.7c-3.1-3.1-7.2-4.8-11.6-4.8c-1,0-2,0.1-2.9,0.3L34.4,79.7c4.7,2.4,10,3.8,15.6,3.8
			c18.5,0,33.6-15,33.6-33.6C83.6,44.4,82.2,39.1,79.7,34.4z M69.6,64.7c-2.8,0-5.1-2.3-5.1-5.1c0-1.2,1-3.5,2.7-6.2
			c0.7-1.1,1.4-2.1,2-2.9c0.2-0.2,0.3-0.4,0.4-0.5c0.1,0.1,0.3,0.3,0.4,0.5c0.6,0.8,1.3,1.8,2,2.9c1.7,2.7,2.7,5,2.7,6.2
			C74.7,62.5,72.4,64.7,69.6,64.7z"/>
	</g>
	<path class="st1" d="M50,0C22.4,0,0,22.4,0,50s22.4,50,50,50s50-22.4,50-50S77.6,0,50,0z M50,7.4c10.3,0,19.8,3.7,27.1,9.8
		L17.2,77.1C11.1,69.8,7.4,60.3,7.4,50C7.4,26.5,26.5,7.4,50,7.4z M50,92.6c-10.3,0-19.8-3.7-27.1-9.8l59.9-59.9
		c6.1,7.4,9.8,16.8,9.8,27.1C92.6,73.5,73.5,92.6,50,92.6z"/>
</g>
</svg>
