<?xml version="1.0" encoding="utf-8"?>
<!-- Generator: Adobe Illustrator 27.0.0, SVG Export Plug-In . SVG Version: 6.00 Build 0)  -->
<svg version="1.1" id="Layer_1" xmlns="http://www.w3.org/2000/svg" xmlns:xlink="http://www.w3.org/1999/xlink" x="0px" y="0px"
	 viewBox="0 0 100 100" style="enable-background:new 0 0 100 100;" xml:space="preserve">
<style type="text/css">
	.st0{fill:#F5008B;}
	.st1{fill:#96458F;}
</style>
<g>
	<path class="st0" d="M23.5,29c-1.1,1.8-2.9,5.1-2.9,7.2c0,3.7,3,6.8,6.8,6.8c3.7,0,6.8-3,6.8-6.8c0-2.1-1.8-5.4-2.9-7.2
		c-0.7-1.1-1.4-2.2-2.1-3.1c-0.3-0.4-0.6-0.7-0.8-1c-0.3-0.3-0.6-0.5-0.9-0.5c-0.3,0-0.6,0.2-0.9,0.5c-0.2,0.2-0.5,0.6-0.8,1
		C25,26.8,24.2,27.9,23.5,29z"/>
	<g>
		<path class="st0" d="M59.9,26c-0.1-0.1-0.2-0.2-0.2-0.3c-1-1.3-1.9-2.3-2.6-3.1c-1-1.1-1.9-1.7-2.9-1.7c-1,0-1.9,0.7-2.9,1.7
			c-0.7,0.7-1.6,1.8-2.6,3.1c-2.1,2.7-4.4,6.2-6.6,9.7C39.6,39.4,35.8,46,34,51.8L59.9,26z"/>
		<path class="st0" d="M40.3,73.9c3.7,3.2,8.6,5.2,13.9,5.2c11.7,0,21.3-9.5,21.3-21.3c0-4.1-2.2-9.6-4.7-14.5L40.3,73.9z"/>
	</g>
	<path class="st1" d="M50,0C22.4,0,0,22.4,0,50s22.4,50,50,50s50-22.4,50-50S77.6,0,50,0z M50,7.4c10.3,0,19.8,3.7,27.1,9.8
		L17.2,77.1C11.1,69.8,7.4,60.3,7.4,50C7.4,26.5,26.5,7.4,50,7.4z M50,92.6c-10.3,0-19.8-3.7-27.1-9.8l59.9-59.9
		c6.1,7.4,9.8,16.8,9.8,27.1C92.6,73.5,73.5,92.6,50,92.6z"/>
</g>
</svg>
