<?xml version="1.0" encoding="utf-8"?>
<!-- Generator: Adobe Illustrator 27.0.0, SVG Export Plug-In . SVG Version: 6.00 Build 0)  -->
<svg version="1.1" id="Layer_1" xmlns="http://www.w3.org/2000/svg" xmlns:xlink="http://www.w3.org/1999/xlink" x="0px" y="0px"
	 viewBox="0 0 100 100" style="enable-background:new 0 0 100 100;" xml:space="preserve">
<style type="text/css">
	.st0{fill:#96458F;}
	.st1{fill:#F5008B;}
</style>
<g>
	<g>
		<path class="st0" d="M5.4,37.2c0.4,0.2,0.9,0.2,1.3,0.2c1.5,0,2.9-0.9,3.5-2.4C16.9,17,35,5.7,54.1,7.6c12.6,1.2,23.9,8,30.9,18.3
			l-6.6,2.5l17.2,14l3.5-21.9l-7,2.7c-8.2-12.9-22-21.5-37.3-23C32.4-2,11.1,11.3,3.2,32.4C2.5,34.3,3.5,36.4,5.4,37.2z"/>
		<path class="st0" d="M94.6,62.8c-1.9-0.7-4.1,0.3-4.8,2.2c-6.8,18-24.9,29.3-44,27.4c-12.6-1.2-23.9-8-30.9-18.3l6.6-2.5l-17.2-14
			L0.8,79.5l7-2.7c8.2,12.9,22,21.5,37.3,23c1.6,0.2,3.3,0.2,4.9,0.2c20.6,0,39.4-12.8,46.8-32.4C97.5,65.7,96.5,63.6,94.6,62.8z"/>
	</g>
	<path class="st1" d="M69.6,58.6h-11v11c0,4.8-3.9,8.6-8.6,8.6h0c-4.8,0-8.6-3.9-8.6-8.6v-11h-11c-4.8,0-8.6-3.9-8.6-8.6v0
		c0-4.8,3.9-8.6,8.6-8.6h11v-11c0-4.8,3.9-8.6,8.6-8.6h0c4.8,0,8.6,3.9,8.6,8.6v11h11c4.8,0,8.6,3.9,8.6,8.6v0
		C78.2,54.8,74.4,58.6,69.6,58.6z"/>
</g>
</svg>
