<?xml version="1.0" encoding="utf-8"?>
<!-- Generator: Adobe Illustrator 27.0.0, SVG Export Plug-In . SVG Version: 6.00 Build 0)  -->
<svg version="1.1" id="Layer_1" xmlns="http://www.w3.org/2000/svg" xmlns:xlink="http://www.w3.org/1999/xlink" x="0px" y="0px"
	 viewBox="0 0 100 100" style="enable-background:new 0 0 100 100;" xml:space="preserve">
<style type="text/css">
	.st0{fill:#96458F;}
	.st1{fill:#FA1992;}
	.st2{fill:#F5008B;}
</style>
<g>
	<path class="st0" d="M50,0C22.4,0,0,22.4,0,50s22.4,50,50,50s50-22.4,50-50S77.6,0,50,0z M50,7.4c10.3,0,19.8,3.7,27.1,9.8
		L17.2,77.1C11.1,69.8,7.4,60.3,7.4,50C7.4,26.5,26.5,7.4,50,7.4z M50,92.6c-10.3,0-19.8-3.7-27.1-9.8l59.9-59.9
		c6.1,7.4,9.8,16.8,9.8,27.1C92.6,73.5,73.5,92.6,50,92.6z"/>
	<g>
		<path class="st1" d="M75.8,39.9c0.3-0.2,0.3-0.9,0.1-1.7l-1.3,1.3C75.1,40,75.6,40.1,75.8,39.9z"/>
		<path class="st2" d="M21.6,60.7c0.5-0.1,0.7-0.9,0.7-2c0-0.9,0.5-1.8,1.4-2.1c0.9-0.4,1.9-0.8,2.9-1.1c0.7-0.2,1.4-0.4,2.1-0.5
			c0.7-0.1,1.4,0,1.9,0.3l2.1-2.1c-0.2-0.4-0.3-0.8-0.3-1.3c-0.2-1.7,0.6-3.1,1.6-3.2c0.7-0.1,1.4,0.5,1.8,1.4l13.4-13.4
			c-0.3,0.1-0.5,0.1-0.8,0.2c-1.7,0.2-3.1-0.6-3.2-1.6s1.2-2.1,2.8-2.2s3.1,0.6,3.2,1.6c0,0,0,0,0,0l10.2-10.2
			c-0.6-0.4-1.4-0.9-2.4-1.2c-2.1-0.7-3.9-0.7-4.2,0c-0.1,0.4,0.3,0.9,1,1.4c0.6,0.4,0.9,1.2,0.8,1.9c-0.2,0.8-0.4,1.6-0.7,2.5
			C56,29,56,29.2,55.9,29.3c-0.4,1.2-1.6,1.9-2.9,1.7c0,0,0,0,0,0c-1.3-0.2-2.2-1.3-2.2-2.6c0-0.8,0.1-1.5,0.1-2.3
			c0.1-1.1,0.3-2.1,0.5-3.1c0.2-0.9,0.9-1.6,1.9-1.7c1.1-0.2,1.8-0.6,1.9-1.1c0.1-0.9-2-1.8-4.6-2.1c-2.7-0.3-4.9,0.2-5,1.1
			c-0.1,0.5,0.6,1,1.6,1.4c0.9,0.3,1.4,1.2,1.5,2.1c0,1,0,2.1-0.2,3.1c-0.1,1.2-0.3,2.3-0.6,3.4c-0.2,1-1.1,1.8-2.1,2
			c-0.5,0.1-1.1,0.3-1.6,0.4c-1.2,0.4-2.5-0.1-3.2-1.2c0,0,0,0,0,0c-0.4-0.8-0.8-1.5-1.2-2.3c-0.3-0.7-0.2-1.5,0.4-2.1
			c0.6-0.7,0.9-1.2,0.7-1.6c-0.4-0.6-2.2-0.2-4.1,0.9s-3.1,2.5-2.8,3.1c0.2,0.4,0.9,0.4,1.8,0.2c0.7-0.2,1.5,0.1,2,0.7
			c0.5,0.7,1,1.4,1.4,2.1c0,0,0,0,0,0c0.6,1,0.3,2.3-0.6,3c-0.4,0.3-0.8,0.6-1.1,0.9c-0.8,0.7-1.9,0.7-2.8,0.2
			c-0.7-0.5-1.5-1-2.2-1.6c-0.8-0.7-1.6-1.4-2.3-2.1c-0.6-0.7-0.8-1.7-0.4-2.5c0.5-1,0.5-1.8,0.2-2.1c-0.7-0.6-2.6,0.6-4.3,2.7
			c-1.7,2.1-2.5,4.2-1.8,4.8c0.4,0.3,1.2,0.1,2.1-0.6c0.8-0.5,1.8-0.6,2.5-0.1c0.9,0.6,1.7,1.2,2.5,1.9c0.6,0.5,1.2,1.1,1.8,1.7
			c0.8,0.8,1,2.1,0.4,3.2c0,0,0,0,0,0c-0.6,1.1-2,1.6-3.3,1.2c0,0-0.1,0-0.1-0.1c-0.8-0.3-1.6-0.7-2.3-1.1c-0.7-0.4-1.1-1.1-1-1.9
			c0.1-0.9,0-1.6-0.4-1.7c-0.7-0.3-1.9,1.2-2.7,3.2c-0.8,2-0.9,3.9-0.2,4.2c0.4,0.2,0.9-0.2,1.5-1c0.5-0.6,1.2-0.9,2-0.7
			c0.8,0.2,1.6,0.5,2.4,0.8c0,0,0,0,0,0c1.4,0.5,2.1,1.9,1.9,3.4c-0.1,0.7-0.2,1.4-0.2,2.1c-0.1,1.2-0.8,2.3-1.9,2.7
			c-0.9,0.4-1.9,0.7-2.9,1c-1,0.3-2,0.5-3,0.7c-0.9,0.2-1.8-0.3-2.3-1c-0.6-0.9-1.2-1.5-1.7-1.3c-0.9,0.3-0.9,2.5-0.2,5.1
			C19.4,59,20.8,60.9,21.6,60.7z M47.6,19.2c0-0.4,1.3-0.6,2.9-0.4c1.5,0.2,2.8,0.6,2.7,1c0,0.4-1.3,0.6-2.9,0.4
			C48.8,20,47.6,19.5,47.6,19.2z M36.4,39c1.1-1.3,2.6-1.8,3.4-1.1c0.8,0.7,0.6,2.3-0.4,3.6s-2.6,1.8-3.4,1.1
			C35.2,41.9,35.4,40.3,36.4,39z M27.2,31.2c-1,1.2-2,2-2.3,1.7c-0.3-0.3,0.2-1.4,1.2-2.6c1-1.2,2-2,2.3-1.7
			C28.7,28.8,28.2,30,27.2,31.2z M19.2,53.4c0.4-0.1,1.1,1,1.5,2.5s0.5,2.8,0.1,2.9s-1.1-1-1.5-2.5C18.9,54.8,18.8,53.5,19.2,53.4z"
			/>
		<path class="st1" d="M24.4,59.9c-0.4,0.2-0.4,0.9-0.2,1.7l1.4-1.4C25.1,59.9,24.6,59.8,24.4,59.9z"/>
		<path class="st2" d="M79.4,41c-0.5,0.1-0.8,0.8-1,1.9c-0.1,0.9-0.8,1.7-1.7,1.9c-1,0.3-2,0.5-3.1,0.6c-1.1,0.2-2.3,0.3-3.4,0.3
			c-0.5,0-1-0.2-1.4-0.5l-2,2c0.2,0.4,0.3,0.8,0.3,1.2c0.2,1.7-0.6,3.1-1.6,3.2c-0.7,0.1-1.4-0.5-1.8-1.3L50.4,63.7
			c0.2-0.1,0.5-0.1,0.7-0.1c1.7-0.2,3.1,0.6,3.2,1.6c0.1,1.1-1.2,2.1-2.8,2.2c-1.6,0.2-3.1-0.6-3.2-1.6l-9.9,9.9
			c0.6,0.5,1.4,0.9,2.3,1.3c2,0.8,3.9,0.9,4.2,0.3c0.2-0.4-0.2-0.9-0.9-1.5c-0.6-0.5-0.9-1.2-0.7-2c0.2-0.8,0.5-1.6,0.8-2.4
			c0.1-0.2,0.2-0.5,0.3-0.7c0.5-1.1,1.7-1.7,2.9-1.6c0,0,0,0,0,0c1.2,0.2,2.2,1.1,2.4,2.3c0.1,0.9,0.2,1.8,0.2,2.7
			c0,1.1,0,2.1-0.1,3.1c-0.1,0.9-0.7,1.7-1.6,2c-1.1,0.3-1.7,0.8-1.7,1.3c0,0.9,2.2,1.5,4.9,1.4c2.7-0.1,4.8-0.9,4.8-1.8
			c0-0.5-0.7-0.9-1.8-1.2c-0.9-0.2-1.6-0.9-1.7-1.9c-0.2-1-0.3-2-0.3-3.1c0-0.7,0-1.5,0-2.2c0.1-1.5,1.1-2.9,2.6-3.3
			c0.4-0.1,0.8-0.2,1.2-0.4c1.5-0.5,3.2,0.1,4.1,1.4c0,0,0,0,0,0c0.5,0.7,0.9,1.5,1.2,2.2c0.3,0.7,0.2,1.5-0.3,2.1
			c-0.6,0.7-0.9,1.3-0.7,1.6c0.4,0.6,2.2,0.2,4.1-1c1.9-1.2,3-2.6,2.7-3.2c-0.2-0.3-0.9-0.4-1.8-0.1c-0.7,0.2-1.5,0-2-0.6
			c-0.5-0.7-1-1.3-1.5-2.1c0,0,0,0,0,0c-0.8-1.3-0.6-3.1,0.5-4.1c0.5-0.4,0.9-0.9,1.3-1.3c0.9-1,2.4-1.2,3.6-0.7
			c0.9,0.4,1.8,0.8,2.8,1.3c0.9,0.5,1.8,1.1,2.7,1.6c0.8,0.5,1.1,1.5,0.9,2.4c-0.2,1.1-0.2,1.9,0.3,2.1c0.8,0.4,2.5-1.1,3.7-3.5
			c1.3-2.4,1.7-4.6,0.9-5c-0.4-0.2-1.2,0.1-1.9,0.9c-0.6,0.7-1.6,0.9-2.5,0.6c-1-0.4-1.9-0.8-2.9-1.3c-1.2-0.7-2.4-1.4-3.5-2.2
			c-0.5-0.4-0.6-1-0.4-1.5c0,0,0,0,0,0c0.3-0.6,0.9-0.9,1.6-0.7c0.4,0.1,0.9,0.3,1.3,0.4c0.8,0.3,1.6,0.6,2.4,1
			c0.7,0.3,1.1,1.1,1,1.8c-0.1,0.9,0.1,1.6,0.5,1.7c0.7,0.2,1.8-1.2,2.6-3.3s0.8-3.9,0.1-4.2c-0.4-0.1-0.9,0.3-1.4,1
			c-0.4,0.6-1.2,0.9-1.9,0.8c-0.8-0.2-1.6-0.4-2.5-0.7c0,0,0,0,0,0c-1.4-0.5-2.2-1.9-2-3.3c0-0.3,0.1-0.6,0.1-0.8
			c0.1-1.4,1-2.5,2.4-2.8c0.8-0.2,1.7-0.4,2.6-0.5c1.1-0.2,2.1-0.2,3.1-0.3c0.9,0,1.8,0.5,2.2,1.4c0.5,1,1,1.6,1.5,1.5
			c0.9-0.1,1.3-2.4,0.9-5C81.3,42.9,80.3,40.8,79.4,41z M54.2,80.5c0,0.4-1.2,0.8-2.8,0.8s-2.8-0.2-2.8-0.6s1.2-0.8,2.8-0.8
			C52.9,79.8,54.2,80.1,54.2,80.5z M63.3,61.2c-1.1,1.3-2.6,1.8-3.4,1.1c-0.8-0.7-0.6-2.3,0.4-3.6c1.1-1.3,2.6-1.8,3.4-1.1
			C64.5,58.4,64.3,60,63.3,61.2z M75.9,65.3c0.7-1.4,1.6-2.3,2-2.1c0.3,0.2,0,1.4-0.7,2.8c-0.7,1.4-1.6,2.3-2,2.1
			C74.9,68,75.2,66.7,75.9,65.3z M80.7,48.5c-0.4,0.1-0.9-1.1-1.1-2.7c-0.2-1.5-0.1-2.8,0.3-2.9s0.9,1.1,1.1,2.7
			C81.3,47.2,81.1,48.5,80.7,48.5z"/>
	</g>
</g>
</svg>
