<?xml version="1.0" encoding="utf-8"?>
<!-- Generator: Adobe Illustrator 27.0.0, SVG Export Plug-In . SVG Version: 6.00 Build 0)  -->
<svg version="1.1" id="Layer_1" xmlns="http://www.w3.org/2000/svg" xmlns:xlink="http://www.w3.org/1999/xlink" x="0px" y="0px"
	 viewBox="0 0 100 100" style="enable-background:new 0 0 100 100;" xml:space="preserve">
<style type="text/css">
	.st0{fill:#F5008B;}
	.st1{fill:#96458F;}
</style>
<g>
	<path class="st0" d="M20.4,33.3c-1.1,1.8-2.9,5.1-2.9,7.2c0,3.7,3,6.8,6.8,6.8c3.7,0,6.8-3,6.8-6.8c0-2.1-1.8-5.4-2.9-7.2
		c-0.7-1.1-1.4-2.2-2.1-3.1c-0.3-0.4-0.6-0.7-0.8-1c-0.3-0.3-0.6-0.5-0.9-0.5c-0.3,0-0.6,0.2-0.9,0.5c-0.2,0.2-0.5,0.6-0.8,1
		C21.9,31.1,21.1,32.2,20.4,33.3z"/>
	<path class="st0" d="M73.5,48.3c-1.1,1.8-2.9,5.1-2.9,7.2c0,3.7,3,6.8,6.8,6.8c3.7,0,6.8-3,6.8-6.8c0-2.1-1.8-5.4-2.9-7.2
		c-0.7-1.1-1.4-2.2-2.1-3.1c-0.3-0.4-0.6-0.7-0.8-1c-0.3-0.3-0.6-0.5-0.9-0.5c-0.3,0-0.6,0.2-0.9,0.5c-0.2,0.2-0.5,0.6-0.8,1
		C75,46.1,74.2,47.2,73.5,48.3z"/>
	<path class="st1" d="M50,100C22.4,100,0,77.6,0,50S22.4,0,50,0s50,22.4,50,50S77.6,100,50,100z M50,7.4C26.5,7.4,7.4,26.5,7.4,50
		S26.5,92.6,50,92.6S92.6,73.5,92.6,50S73.5,7.4,50,7.4z"/>
	<g>
		<path class="st0" d="M44.9,40.9l9.8-9.8c-0.3-2.8-2.5-6.7-3.9-8.9c-0.9-1.5-1.9-3-2.8-4.2c-0.4-0.6-0.8-1-1.1-1.3
			c-0.4-0.5-0.8-0.7-1.2-0.7c-0.4,0-0.8,0.3-1.2,0.7c-0.3,0.3-0.7,0.8-1.1,1.3c-0.9,1.2-1.9,2.6-2.8,4.2c-1.5,2.4-3.9,6.8-3.9,9.7
			C36.5,36.6,40.2,40.6,44.9,40.9z"/>
		<path class="st0" d="M61.1,55.4c-0.4-0.5-0.7-0.9-1-1.2L50.2,64c-1.3,2.5-2.4,5.3-2.4,7.4c0,5.8,4.8,10.6,10.6,10.6
			c5.8,0,10.6-4.8,10.6-10.6c0-3.3-2.9-8.4-4.6-11.2C63.3,58.4,62.1,56.7,61.1,55.4z"/>
	</g>
	<rect x="2.4" y="46" transform="matrix(0.7071 -0.7071 0.7071 0.7071 -20.7107 50)" class="st1" width="95.2" height="8"/>
</g>
</svg>
