<?xml version="1.0" encoding="utf-8"?>
<!-- Generator: Adobe Illustrator 27.0.0, SVG Export Plug-In . SVG Version: 6.00 Build 0)  -->
<svg version="1.1" id="Layer_1" xmlns="http://www.w3.org/2000/svg" xmlns:xlink="http://www.w3.org/1999/xlink" x="0px" y="0px"
	 viewBox="0 0 100 100" style="enable-background:new 0 0 100 100;" xml:space="preserve">
<style type="text/css">
	.st0{fill:#F5008B;}
	.st1{fill:#96458F;}
</style>
<g>
	<g>
		<path class="st0" d="M29,56.8L56.8,29L46.5,18.8c-2.8-2.8-7.2-2.8-10,0L18.8,36.5c-2.8,2.8-2.8,7.2,0,10L29,56.8z M38.2,24.9
			c2.3-2.3,6-2.3,8.2,0c2.3,2.3,2.3,6,0,8.2s-6,2.3-8.2,0C35.9,30.9,35.9,27.2,38.2,24.9z M24.9,38.2c2.3-2.3,6-2.3,8.2,0
			c2.3,2.3,2.3,6,0,8.2c-2.3,2.3-6,2.3-8.2,0C22.6,44.1,22.6,40.4,24.9,38.2z"/>
		<path class="st0" d="M71,43.2L43.2,71l10.3,10.3c2.8,2.8,7.2,2.8,10,0l17.7-17.7c2.8-2.8,2.8-7.2,0-10L71,43.2z M61.8,75.1
			c-2.3,2.3-6,2.3-8.2,0c-2.3-2.3-2.3-6,0-8.2c2.3-2.3,6-2.3,8.2,0S64.1,72.8,61.8,75.1z M75.1,61.8c-2.3,2.3-6,2.3-8.2,0
			c-2.3-2.3-2.3-6,0-8.2c2.3-2.3,6-2.3,8.2,0C77.4,55.9,77.4,59.6,75.1,61.8z"/>
	</g>
	<path class="st1" d="M50,0C22.4,0,0,22.4,0,50s22.4,50,50,50s50-22.4,50-50S77.6,0,50,0z M50,7.4c10.3,0,19.8,3.7,27.1,9.8
		L17.2,77.1C11.1,69.8,7.4,60.3,7.4,50C7.4,26.5,26.5,7.4,50,7.4z M50,92.6c-10.3,0-19.8-3.7-27.1-9.8l59.9-59.9
		c6.1,7.4,9.8,16.8,9.8,27.1C92.6,73.5,73.5,92.6,50,92.6z"/>
</g>
</svg>
