<?xml version="1.0" encoding="utf-8"?>
<!-- Generator: Adobe Illustrator 27.0.0, SVG Export Plug-In . SVG Version: 6.00 Build 0)  -->
<svg version="1.1" id="Layer_1" xmlns="http://www.w3.org/2000/svg" xmlns:xlink="http://www.w3.org/1999/xlink" x="0px" y="0px"
	 viewBox="0 0 100 100" style="enable-background:new 0 0 100 100;" xml:space="preserve">
<style type="text/css">
	.st0{fill:#A44192;}
	.st1{fill:#F5008B;}
</style>
<g>
	<path class="st0" d="M87.4,66.8H74.6c-4.3,0-7.7-3.5-7.7-7.7v0c0-4.3,3.5-7.7,7.7-7.7h12.8c4.3,0,7.7,3.5,7.7,7.7v0
		C95.1,63.4,91.7,66.8,87.4,66.8z"/>
	<path class="st1" d="M74.6,46.3h8.7c0.6,0,1.1,0,1.7,0.1v-9.8c0-4.2-3.4-7.6-7.6-7.6h-65c-4.2,0-7.6,3.4-7.6,7.6v44.7
		c0,4.2,3.4,7.6,7.6,7.6h0.4c-1.1-2.9-1.7-6-1.7-9.2c0-14,11.4-25.5,25.5-25.5c14,0,25.5,11.4,25.5,25.5c0,3.3-0.6,6.4-1.7,9.2h17.2
		c4.2,0,7.6-3.4,7.6-7.6v-9.5c-0.6,0.1-1.1,0.1-1.7,0.1h-8.7c-7.1,0-12.8-5.8-12.8-12.8C61.8,52,67.5,46.3,74.6,46.3z"/>
	<path class="st0" d="M36.5,59.3c-11.2,0-20.3,9.1-20.3,20.3S25.3,100,36.5,100s20.3-9.1,20.3-20.3S47.8,59.3,36.5,59.3z M44.7,71.3
		h-4.4c0,0.9-0.1,2.2-0.4,3.6h3.6c0.8,0,1.4,0.6,1.4,1.4c0,0.8-0.6,1.4-1.4,1.4h-4.4c-0.5,1.4-1.2,2.7-2.3,3.8c-0.9,0.9-1.9,1.6-3,2
		l7.1,6.1c0.6,0.5,0.7,1.4,0.1,2c-0.3,0.3-0.7,0.5-1.1,0.5c-0.3,0-0.7-0.1-0.9-0.3l-9.3-8c-0.4-0.4-0.6-1-0.4-1.6
		c0.2-0.6,0.7-0.9,1.3-0.9c1.7,0,3.1-0.5,4.1-1.7c0.5-0.6,0.9-1.2,1.3-1.9h-4.7c-0.8,0-1.4-0.6-1.4-1.4c0-0.8,0.6-1.4,1.4-1.4H37
		c0.3-1.4,0.4-2.7,0.4-3.6H26.8c-0.8,0-1.4-0.6-1.4-1.4s0.6-1.4,1.4-1.4h17.9c0.8,0,1.4,0.6,1.4,1.4S45.5,71.3,44.7,71.3z"/>
	<path class="st0" d="M77.4,23.9c3.3,0,6.4,1.3,8.6,3.4l2.6-3.8c1.1-1.6,0.7-3.9-1-5L61.2,0.6c-1.6-1.1-3.9-0.7-5,1L41.1,23.9H77.4z
		"/>
	<path class="st0" d="M12.4,23.9h22.4L48.7,3.5C48.1,2.6,47,2,45.8,2h-32c-2,0-3.6,1.6-3.6,3.6v18.5C10.9,24,11.7,23.9,12.4,23.9z"
		/>
</g>
</svg>
