<?xml version="1.0" encoding="utf-8"?>
<!-- Generator: Adobe Illustrator 27.0.0, SVG Export Plug-In . SVG Version: 6.00 Build 0)  -->
<svg version="1.1" id="Layer_1" xmlns="http://www.w3.org/2000/svg" xmlns:xlink="http://www.w3.org/1999/xlink" x="0px" y="0px"
	 viewBox="0 0 100 100" style="enable-background:new 0 0 100 100;" xml:space="preserve">
<style type="text/css">
	.st0{fill:#A44192;}
	.st1{fill:#F5008B;}
</style>
<g>
	<path class="st0" d="M59.3,65.6v22c0,3.7-3,6.7-6.7,6.7h-6.5V20.3L15.2,5.7h37.4c3.7,0,6.7,3,6.7,6.7v22h5.7v-22
		C64.9,5.5,59.4,0,52.6,0H13C6.1,0,0.6,5.5,0.6,12.4v75.3C0.6,94.5,6.1,100,13,100h39.6c6.8,0,12.4-5.5,12.4-12.4v-22H59.3z
		 M37.5,59.9c-1.6,0-2.9-1.3-2.9-2.9c0-1.6,1.3-2.9,2.9-2.9c1.6,0,2.9,1.3,2.9,2.9C40.4,58.6,39.1,59.9,37.5,59.9z"/>
	<path class="st1" d="M98.6,48L82.9,32.3c-1.8-1.8-4.9-0.5-4.9,2v4.2H62.2c-1.6,0-2.9,1.3-2.9,2.9v17.2c0,1.6,1.3,2.9,2.9,2.9h15.8
		v4.2c0,2.6,3.1,3.9,4.9,2L98.6,52C99.7,50.9,99.7,49.1,98.6,48z"/>
</g>
</svg>
